<?xml version="1.0" encoding="UTF-8"?> <svg xmlns="http://www.w3.org/2000/svg" width="200" height="200" viewBox="0 0 200 200" fill="none"><rect width="200" height="200" fill="black"></rect><path d="M82.7508 110.127C78.4039 110.127 74.3687 108.823 71.6752 106.406C69.6402 104.579 68.6624 102.098 68.6624 99.5448C68.6624 97.0224 69.6824 94.5243 71.6749 92.7075C74.1764 90.4277 78.5928 89 82.7508 89C87.3523 89 91.0352 90.159 93.8506 92.7137C95.8537 94.5316 96.8222 97.0186 96.8222 99.5451C96.8222 101.994 95.7945 104.602 93.8506 106.406C91.2289 108.839 87.1089 110.127 82.7508 110.127V107.34C85.0581 107.34 87.1983 106.544 88.693 105.057C90.1774 103.58 90.8689 101.764 90.8689 99.5448C90.8689 97.419 90.1229 95.4316 88.693 94.0219C87.2183 92.5694 85.027 91.752 82.7508 91.752C80.4677 91.752 78.2749 92.561 76.799 94.0219C75.3769 95.4311 74.6289 97.4243 74.6289 99.5448C74.6289 101.659 75.3855 103.651 76.799 105.057C78.2761 106.526 80.4612 107.341 82.7508 107.341V110.127V110.127ZM50.9788 89.0101C48.6535 89.0101 46.0118 89.4451 43.7672 90.4475C41.6957 91.3718 40 92.8667 40 95.3451C39.999 97.5771 41.4176 98.8843 41.379 98.8482C41.9824 99.4036 42.9537 100.349 45.4933 100.905C46.6282 101.153 49.0547 101.534 51.4711 101.787C53.8696 102.04 56.2301 102.28 57.1916 102.524C57.9554 102.718 59.2386 102.983 59.2386 104.422C59.2386 105.856 57.8867 106.294 57.6518 106.389C57.4171 106.481 55.7954 107.226 52.8802 107.226C50.728 107.226 48.1405 106.578 47.1973 106.241C46.1101 105.854 44.9696 105.342 43.9058 104.043C43.6412 103.72 43.2239 102.834 43.2239 101.957H40.5855V109.35H43.5181V108.351C43.5181 108.237 43.6602 107.77 44.1525 107.992C44.7651 108.27 46.5631 108.986 48.4431 109.379C49.9846 109.701 50.9786 109.932 52.8949 109.932C56.0217 109.932 57.7014 109.423 58.8627 109.091C59.9566 108.778 61.3084 108.216 62.4065 107.34C63.0012 106.867 64.3053 105.653 64.3053 103.45C64.3053 101.335 63.1704 100.022 62.7711 99.6231C62.2272 99.079 61.5629 98.6573 60.8706 98.3323C60.2675 98.0484 59.3157 97.7075 58.5369 97.5169C57.0253 97.1458 53.6075 96.688 51.973 96.5169C50.259 96.3378 47.2858 96.0916 46.0983 95.7241C45.7383 95.6125 45.0043 95.2629 45.0043 94.4108C45.0043 93.8048 45.34 93.2911 46.0034 92.8759C47.0564 92.2161 49.1834 91.806 51.4005 91.806C54.0217 91.7964 56.2414 92.3957 57.6535 93.027C58.1337 93.2414 58.6957 93.5494 59.1419 93.9137C59.6455 94.3243 60.3525 95.1776 60.6082 96.3677H62.9769V89.9325H60.332V90.6805C60.332 90.9219 60.0827 91.2357 59.6111 90.9764C58.4275 90.3554 55.081 89.0157 50.9783 89.0101H50.9788ZM108.939 90.1795L121.84 101.823L121.708 93.9836C121.695 92.9557 121.506 92.5265 120.394 92.5265H117.968V90.1814H128.999V92.5265H126.633C125.499 92.5265 125.427 92.8892 125.414 93.9836L125.614 108.963H121.836L106.976 95.7L106.979 105.113C106.992 106.136 107.04 106.618 108.094 106.618H110.743V108.962H99.9096V106.618H102.442C103.388 106.618 103.351 105.716 103.351 105.059V94.0728C103.351 93.3636 103.251 92.5282 101.766 92.5282H99.7108V90.1795H108.939ZM141.605 106.613C141.708 106.613 142.169 106.6 142.258 106.573C142.513 106.493 142.685 106.312 142.765 106.122C142.799 106.043 142.816 105.691 142.816 105.614L142.818 101.908C142.818 101.819 142.811 101.781 142.66 101.582C142.494 101.365 135.902 93.8954 135.6 93.5665C135.226 93.1581 134.568 92.5267 133.568 92.5267H131.276V90.1807H144.213V92.5239H142.653C142.293 92.5239 142.053 92.866 142.361 93.2463C142.361 93.2463 146.713 98.4528 146.755 98.5072C146.795 98.5627 146.83 98.5759 146.885 98.5253C146.94 98.4735 151.347 93.294 151.382 93.253C151.591 93.0019 151.449 92.5265 150.997 92.5265H149.398V90.1807H160V92.5265H157.631C156.772 92.5265 156.422 92.6855 155.776 93.4164C155.48 93.7508 148.818 101.355 148.637 101.561C148.542 101.669 148.55 101.819 148.55 101.908V105.613C148.55 105.689 148.567 106.041 148.601 106.12C148.681 106.31 148.855 106.492 149.109 106.571C149.199 106.598 149.653 106.612 149.756 106.612H152.179V108.957H139.309V106.611L141.605 106.613H141.605Z" fill="white"></path></svg> 